<svg width="498" height="132" viewBox="0 0 498 132" fill="none" xmlns="http://www.w3.org/2000/svg">
<path d="M2.68243 22.7194C3.37885 23.1341 3.08586 24.2552 3.43408 24.4625C3.49851 26.0123 4.04384 26.8767 3.60896 28.6691C3.8613 30.6546 4.54852 30.8479 3.24771 32.2326C2.7668 32.918 1.91007 32.7318 1.9653 34.0602C1.17299 35.4239 2.56585 36.2531 2.12176 37.824C2.31888 38.4812 2.02589 39.6023 1.87479 40.0521C2.41092 40.6952 1.22439 40.7445 0.743482 41.4299C-0.058024 42.5721 0.798706 42.7583 1.18374 43.8512C2.24679 44.9159 1.7935 46.2655 1.50971 47.6079C1.04722 48.7361 2.26137 49.351 1.96837 50.4721C2.5045 51.1151 1.00657 51.8428 2.21151 52.2362C2.06962 52.9075 2.75684 53.1007 2.95396 53.7578C1.78583 54.25 3.32979 54.6294 3.17869 55.0792C3.71482 55.7223 3.21551 55.9648 3.92114 56.6008C4.78708 57.0084 4.65439 57.901 4.67279 58.3438C5.69903 58.523 6.04725 58.7303 6.21675 58.7232C7.93021 59.0956 7.30741 60.4522 7.37184 62.002C6.57034 63.1442 7.30358 64.4444 7.85812 65.5303C8.06444 66.4088 7.94095 67.5229 7.97777 68.4085C7.15786 69.1079 9.70964 69.2236 7.87269 69.9653C8.75704 70.8157 6.38396 70.9144 7.60732 71.7506C7.79523 72.1864 6.63631 72.8999 7.50224 73.3075C7.52985 73.9717 7.71777 74.4075 7.57587 75.0787C6.76516 75.9995 7.6495 76.8499 7.69552 77.9569C7.41174 79.2994 8.98331 80.343 7.68249 81.7278C7.5498 82.6204 6.73909 83.5413 7.27522 84.1843C6.2858 84.8908 6.62481 84.8767 6.49212 85.7694C5.6722 86.4688 6.21754 87.3333 6.07564 88.0045C5.93375 88.6758 5.64076 89.7969 6.17689 90.4399C5.86549 91.1182 7.23074 91.2832 6.58953 92.197C6.98377 93.5113 5.17443 94.9173 7.24531 95.7183C7.08501 95.9468 6.5857 96.1893 7.95095 96.3543C7.46084 96.8183 9.19271 97.6334 8.03378 98.3469C8.25851 99.6683 8.97335 100.526 8.85907 101.861C8.91429 103.19 9.12982 104.29 9.17584 105.397C8.04453 106.774 8.93807 107.846 9.33231 109.16C8.86981 110.288 9.23644 110.939 9.59385 111.367C10.0932 111.125 9.79097 112.024 9.97888 112.46C10.0065 113.124 10.4099 114.66 10.3141 116.438C11.7529 118.375 11.2628 118.839 10.4797 120.424C10.7321 122.409 10.7873 123.738 11.3234 124.381C11.1907 125.273 11.585 126.588 11.6218 127.473C12.1763 128.559 11.1777 129.044 11.1869 129.266C11.1961 129.487 11.2421 130.594 10.9215 131.051C10.7796 131.722 10.798 132.165 10.6469 132.615C86.0768 129.479 418.985 115.639 496.449 112.419C496.375 110.648 496.224 111.098 495.697 110.676C495.17 110.254 495.294 109.14 495.115 108.926C495.051 107.376 494.506 106.512 494.94 104.719C494.688 102.734 494.001 102.541 495.302 101.156C495.773 100.249 496.461 100.442 496.415 99.3352C497.207 97.9716 495.814 97.1423 496.258 95.5714C496.061 94.9142 496.354 93.7931 496.505 93.3433C495.969 92.7002 497.155 92.6509 497.636 91.9656C498.438 90.8233 497.581 90.6372 497.196 89.5442C496.133 88.4795 496.586 87.13 496.87 85.7875C497.333 84.6593 496.119 84.0445 496.412 82.9234C495.875 82.2803 497.373 81.5527 496.168 81.1592C496.31 80.488 495.623 80.2947 495.426 79.6376C496.594 79.1454 495.05 78.7661 495.201 78.3162C494.665 77.6732 495.164 77.4306 494.459 76.7946C493.593 76.387 493.725 75.4944 493.707 75.0516C492.841 74.644 492.502 74.6581 492.333 74.6652C490.619 74.2928 491.242 72.9362 491.178 71.3864C491.979 70.2442 491.246 68.944 490.691 67.8581C490.485 66.9795 490.608 65.8655 490.572 64.9799C491.392 64.2805 488.84 64.1648 490.677 63.423C489.792 62.5727 492.165 62.474 490.942 61.6377C490.754 61.202 491.913 60.4885 491.047 60.0809C491.02 59.4167 490.832 58.9809 490.974 58.3097C491.784 57.3888 490.9 56.5385 490.854 55.4315C491.138 54.089 489.566 53.0454 490.867 51.6606C491 50.768 491.81 49.8471 491.274 49.2041C492.264 48.4976 491.925 48.5117 492.057 47.619C492.877 46.9196 492.332 46.0551 492.474 45.3839C492.616 44.7126 492.909 43.5915 492.372 42.9485C492.684 42.2702 491.319 42.1051 491.96 41.1913C491.566 39.877 493.375 38.4711 491.304 37.6701C491.464 37.4416 491.964 37.1991 490.598 37.0341C491.089 36.5701 489.357 35.755 490.516 35.0414C490.291 33.7201 489.576 32.8627 489.69 31.5272C489.635 30.1988 489.42 29.0989 489.374 27.9919C490.505 26.6141 489.611 25.5424 489.217 24.228C489.68 23.0999 489.313 22.4498 488.956 22.0211C488.456 22.2636 488.758 21.3639 488.57 20.9282C488.543 20.264 488.139 18.7283 488.235 16.95C486.796 15.0138 487.287 14.5498 488.07 12.9648C487.817 10.9792 487.762 9.65082 487.226 9.00776C487.359 8.11511 486.964 6.8008 486.928 5.91519C486.373 4.82933 487.372 4.34425 487.362 4.12285C487.353 3.90144 487.307 2.79444 487.628 2.33755C487.77 1.6663 487.751 1.2235 487.902 0.773647C459.934 1.93635 41.595 19.3275 2.10028 20.9694C2.17391 22.7406 2.33421 22.5121 2.68243 22.7194Z" fill="white"/>
</svg>
