<svg width="713" height="367" viewBox="0 0 713 367" fill="none" xmlns="http://www.w3.org/2000/svg">
<path d="M-1.60167e-05 0.528931L713 0.528899L713 316.478C710.159 316.478 707.319 315.086 701.637 313.694C698.797 310.911 693.116 310.911 691.695 312.303C690.275 312.303 686.014 303.951 680.333 308.127C673.231 308.127 664.709 310.911 660.448 309.519C657.608 313.694 649.086 313.694 634.882 315.086C624.94 308.127 622.1 305.343 609.317 315.086C599.375 313.694 588.012 316.478 583.751 316.478C580.91 316.478 575.229 315.086 576.649 319.262C573.809 322.045 568.127 323.437 562.446 320.654C555.345 323.437 546.823 330.397 538.301 320.654C529.779 320.654 522.677 323.437 515.576 322.045C508.474 319.262 501.372 326.221 494.271 327.613C491.43 319.262 485.749 333.18 481.488 327.613C480.068 338.748 478.647 333.18 477.227 333.18C471.546 349.882 464.444 334.572 454.502 337.356C448.821 331.788 448.821 342.923 443.139 340.139C438.878 344.315 431.777 341.531 427.516 341.531C423.255 340.139 417.574 342.923 413.313 337.356C409.052 335.964 407.631 338.748 403.371 330.397C399.11 334.572 393.428 327.613 387.747 326.221C379.225 315.086 372.124 327.613 363.602 324.829C357.92 324.829 352.239 331.788 345.137 324.829C340.876 323.437 338.036 324.829 333.775 324.829C330.934 331.788 328.094 322.045 323.833 323.437C318.151 331.788 318.151 312.303 312.47 320.654C309.629 305.343 306.789 326.221 302.528 319.262C296.847 319.262 289.745 317.87 284.064 319.262C276.962 323.437 268.44 329.005 261.339 322.045C251.396 322.045 242.874 316.478 240.034 330.397C240.034 331.788 240.034 333.18 237.193 341.531C234.353 340.139 228.671 340.139 225.831 347.099C221.57 354.058 220.149 348.491 215.888 352.666C213.048 351.274 210.207 363.801 207.367 354.058C204.526 355.45 201.685 361.017 197.424 359.625C193.163 369.368 188.902 358.234 186.062 361.017C178.96 358.234 174.699 366.585 167.598 363.801C159.076 361.017 150.554 356.842 143.452 365.193C139.191 363.801 136.351 370.76 130.669 363.801C126.408 359.625 126.408 349.882 122.147 354.058C119.307 352.666 112.205 348.491 107.944 351.274C96.5817 347.099 92.3207 356.842 83.7988 351.274C76.6972 351.274 76.6972 345.707 72.4362 341.531C63.9143 330.397 62.494 335.964 49.7112 337.356C38.3486 333.18 34.0876 337.356 24.1454 337.356C21.3048 338.748 14.2032 335.964 11.3625 341.531C8.52191 344.315 11.3625 345.707 -9.28489e-07 345.707L-1.60167e-05 0.528931Z" fill="#FFF2E2"/>
</svg>
