<svg width="133" height="198" viewBox="0 0 133 198" fill="none" xmlns="http://www.w3.org/2000/svg">
<rect y="0.0623779" width="133" height="197" rx="8" fill="#CDCDCD"/>
<circle cx="52" cy="93.0625" r="4" fill="#D9D9D9"/>
<circle cx="64" cy="93.0625" r="4" fill="#D9D9D9"/>
<circle cx="76" cy="93.0625" r="4" fill="#D9D9D9"/>
<path d="M46.42 118.498H47.644L50.908 109.822H49.684L47.584 115.354C47.44 115.738 47.236 116.314 47.032 116.998C46.852 116.35 46.684 115.858 46.492 115.366L44.38 109.822H43.12L46.42 118.498ZM52.3953 111.238C52.8033 111.238 53.1393 110.902 53.1393 110.494C53.1393 110.074 52.8033 109.75 52.3953 109.75C51.9873 109.75 51.6513 110.074 51.6513 110.494C51.6513 110.902 51.9873 111.238 52.3953 111.238ZM51.8433 118.498H52.9713V112.63H51.8433V118.498ZM57.141 118.642C58.593 118.642 59.577 117.934 59.865 116.674H58.809C58.617 117.346 58.041 117.706 57.165 117.706C56.049 117.706 55.401 117.022 55.317 115.786L59.853 115.774V115.354C59.853 113.614 58.761 112.462 57.093 112.462C55.389 112.462 54.225 113.734 54.225 115.57C54.225 117.394 55.413 118.642 57.141 118.642ZM57.093 113.41C58.089 113.41 58.725 114.058 58.725 115.03H55.341C55.485 113.998 56.109 113.41 57.093 113.41ZM62.1737 118.498H63.2897L64.3097 115.366C64.5257 114.658 64.6337 114.274 64.6937 113.986C64.7537 114.31 64.8737 114.766 65.0657 115.354L66.0857 118.498H67.1537L69.1577 112.63H67.9817L66.9977 115.678C66.8297 116.194 66.7217 116.602 66.6257 117.07C66.5297 116.65 66.3377 115.966 66.2417 115.678L65.2697 112.63H64.1177L63.1337 115.678C63.0017 116.062 62.8457 116.554 62.7497 117.07C62.6417 116.554 62.5217 116.11 62.3897 115.678L61.4177 112.63H60.2537L62.1737 118.498ZM75.1218 118.642C76.0698 118.642 76.8738 118.222 77.1738 117.55L77.2938 118.498H78.2538V114.814C78.2538 113.23 77.2698 112.462 75.8178 112.462C74.3058 112.462 73.2978 113.266 73.2978 114.49H74.2818C74.2818 113.782 74.8218 113.362 75.7698 113.362C76.5618 113.362 77.1498 113.71 77.1498 114.694V114.862L75.3018 115.006C73.9218 115.114 73.1178 115.786 73.1178 116.866C73.1178 117.934 73.8618 118.642 75.1218 118.642ZM75.4458 117.766C74.7138 117.766 74.2578 117.454 74.2578 116.83C74.2578 116.254 74.6658 115.87 75.6618 115.774L77.1618 115.654V115.966C77.1618 117.07 76.5138 117.766 75.4458 117.766ZM80.968 118.498V109.666H79.84V118.498H80.968ZM83.7805 118.498V109.666H82.6525V118.498H83.7805Z" fill="#8A8A8A"/>
</svg>
