<svg width="169" height="126" viewBox="0 0 169 126" fill="none" xmlns="http://www.w3.org/2000/svg">
<g clip-path="url(#clip0_338_1056)">
<path d="M147.836 26.9575C147.235 28.754 146.635 30.4008 146.185 32.3471C144.984 37.5869 145.434 42.9764 145.884 48.0665C146.034 50.3122 146.185 52.5578 146.335 54.6537C146.635 68.2773 141.532 82.4996 132.076 93.7278C123.221 104.207 111.064 112.442 96.6558 117.382C74.4429 125.017 50.7292 123.071 32.7187 112.292C36.1707 109.896 41.5738 110.196 45.1759 112.441C45.6262 112.741 46.2266 112.741 46.6768 112.591C47.1271 112.441 47.5773 111.992 47.8775 111.543C49.9787 106.154 55.682 103.309 61.2353 104.507C61.9857 104.657 62.7361 104.357 63.1864 103.758C67.5389 97.9197 72.4918 95.9735 79.3958 97.1712C80.2963 97.3209 81.1969 96.8717 81.497 95.9735C81.7972 95.0752 81.3469 94.177 80.5965 93.7278C79.5459 93.2787 77.7449 91.1828 77.1445 89.9851C76.8443 89.536 76.244 89.0869 75.7937 89.0869C68.1393 88.1886 60.6349 81.9008 56.5826 75.9124C56.1323 75.1639 55.2318 74.8645 54.4813 75.1639C52.0799 75.9124 49.2283 75.613 47.1271 74.2656C45.0259 73.068 43.0747 69.6247 42.6245 66.9299C42.4744 66.1813 41.874 65.5825 41.1236 65.4328C34.0695 64.2351 28.8164 57.1988 26.8653 54.2046C26.7152 53.9052 26.265 53.6058 25.9648 53.4561C22.5128 52.2584 19.511 49.7133 17.71 46.5694C16.059 43.725 16.6594 39.3834 17.4098 35.1915C17.5599 34.5927 17.2597 33.9939 16.8095 33.5447C9.60528 26.9575 5.55293 16.3282 4.20215 7.0462C11.7065 13.7831 22.5128 18.1247 36.7711 20.0709C41.2737 20.6697 45.9264 21.1189 50.429 21.568C58.8339 22.3165 67.689 23.0651 75.7937 25.4604C88.401 29.0535 97.8565 38.036 101.158 49.5636C101.459 50.3122 102.059 50.911 102.959 50.911C110.164 50.911 115.267 45.0723 117.368 39.9822C119.169 35.6407 119.769 30.9997 120.37 26.5084C120.52 25.3107 120.67 24.1131 120.82 22.9154C121.57 18.2744 122.771 12.4357 126.673 8.54329C130.576 4.80056 137.029 3.60289 141.982 5.84853C146.935 8.09417 150.237 13.7831 149.787 19.1726C149.637 21.8674 148.736 24.2628 147.836 26.9575Z" fill="#FF8405"/>
<path d="M152.788 13.1844C152.187 11.3879 151.287 9.74105 150.236 8.09425L160.442 7.3457L152.788 13.1844Z" fill="#FFBD38"/>
<g opacity="0.23">
<path d="M147.835 26.9571C148.735 24.4121 149.636 21.867 149.786 19.3219C149.936 17.6751 149.636 16.1781 149.186 14.5312C148.885 17.6751 147.835 20.819 146.034 23.3641C143.332 27.7057 138.83 30.8496 133.877 32.0472C137.479 32.1969 140.03 36.2391 140.931 39.6824C141.831 43.1257 141.381 46.7187 140.481 50.162C135.378 72.9179 121.119 93.5777 101.608 106.453C88.8506 114.836 73.5417 119.927 57.9326 121.124C70.3898 122.921 83.7476 121.723 96.6551 117.381C111.063 112.441 123.221 104.207 131.926 93.7274C141.381 82.4992 146.484 68.1272 146.184 54.6533C146.184 52.4077 145.884 50.162 145.734 48.0661C145.283 42.8263 144.833 37.5865 146.034 32.3466C146.634 30.4004 147.234 28.6039 147.835 26.9571Z" fill="#FF8405"/>
</g>
<g opacity="0.23">
<path d="M145.734 48.0652C145.584 47.1669 145.584 46.119 145.434 45.2207C141.382 55.5506 134.628 64.8326 126.073 72.0187C114.366 81.6 99.2075 87.1393 84.0486 87.1393C89.3017 92.5288 96.5059 95.8224 104.01 96.4213C99.3575 100.613 92.0033 101.661 85.8497 102.41C79.546 103.308 72.9422 104.356 68.4396 108.847C63.937 107.2 58.5338 110.195 55.9824 114.386C52.5304 113.638 48.3279 115.434 45.3262 117.979C61.0853 123.369 79.2459 123.219 96.656 117.231C111.064 112.44 123.221 104.206 131.926 93.7265C141.382 82.4983 146.485 68.1262 146.185 54.6524C146.185 52.4067 145.885 50.1611 145.734 48.0652Z" fill="#FF8405"/>
</g>
<path d="M152.788 13.1844C152.187 11.3879 151.287 9.74105 150.236 8.09425L160.442 7.3457L152.788 13.1844Z" fill="#FFBD38"/>
<path d="M135.979 12.1362C134.779 12.8847 134.178 14.3818 134.929 15.5795C135.679 16.7772 137.18 17.376 138.381 16.6274C139.581 15.8789 140.182 14.3818 139.431 13.1841C138.681 11.9865 137.18 11.5373 135.979 12.1362Z" fill="#136CD0"/>
<path d="M87.6489 123.668C66.6367 128.16 45.1743 124.866 28.8148 114.087C28.3645 113.787 28.0643 113.338 28.0643 112.889C27.9143 112.44 28.0643 111.841 28.5146 111.392C32.567 106.302 40.0713 105.853 45.6245 108.398C48.7764 102.859 54.9299 99.8645 61.2336 100.763C65.1359 95.9721 69.6385 93.5767 75.0416 93.2773C74.8915 93.1276 74.7414 92.8282 74.5914 92.6785C66.0364 91.3311 58.532 84.7439 54.3296 79.0549C51.3278 79.6538 48.0259 79.0549 45.3244 77.5578C42.4727 75.911 40.3715 72.1683 39.3209 69.0244C31.8165 67.2279 26.4134 60.3413 24.1621 56.898C20.1097 55.2512 16.6577 52.257 14.5565 48.5143C12.4553 44.7715 12.9055 40.1305 13.656 35.6393C4.65075 26.8064 0.448308 12.584 -0.00195312 2.1044C-0.00195312 1.35586 0.448308 0.607311 1.19874 0.307893C1.94918 0.00847456 2.8497 0.307893 3.29996 0.90673C10.204 9.14074 21.3104 14.2309 37.3697 16.6262C41.8724 17.225 46.375 17.6742 50.7275 18.1233C59.4325 18.8718 68.2877 19.7701 76.8427 22.1654C90.0503 25.9082 100.256 35.3398 104.309 47.4663C108.811 46.8675 112.263 42.8253 114.064 38.9329C115.715 35.0404 116.316 30.8486 116.766 26.3573C116.916 25.1596 117.066 23.962 117.216 22.7643C117.967 17.5245 119.467 10.9372 124.12 6.29626C129.223 1.35586 137.178 0.00847462 143.481 3.00266C149.935 5.99684 153.987 12.8835 153.537 19.9198C153.387 22.914 152.336 25.7585 151.286 28.4532C150.686 30.1 150.085 31.7468 149.635 33.3936C148.584 38.0346 148.884 42.8253 149.335 47.9154C149.485 50.1611 149.785 52.4067 149.785 54.802C150.085 69.3238 144.682 84.4445 134.626 96.4212C125.471 107.5 112.713 116.033 97.7048 121.123C94.4028 122.021 91.1009 122.92 87.6489 123.668ZM32.717 112.29C50.7275 123.069 74.4413 125.016 96.6542 117.381C111.063 112.44 123.22 104.206 131.925 93.7264C141.38 82.4983 146.483 68.1262 146.183 54.6523C146.183 52.4067 145.883 50.1611 145.733 48.0651C145.282 42.8253 144.832 37.5855 146.033 32.3457C146.483 30.5492 147.083 28.7526 147.684 26.9561C148.584 24.4111 149.485 21.866 149.635 19.321C150.085 13.9314 146.783 8.24248 141.83 5.99684C136.878 3.75121 130.424 4.79917 126.521 8.69161C122.619 12.584 121.268 18.4227 120.668 23.0637C120.518 24.2614 120.368 25.459 120.218 26.6567C119.617 31.148 119.017 35.789 117.216 40.1305C115.115 45.0709 110.012 51.0593 102.958 51.0593C102.057 51.0593 101.457 50.4605 101.157 49.7119C97.8549 38.1843 88.3994 29.2018 75.792 25.6087C67.5373 23.2134 58.8322 22.4649 50.4273 21.7163C45.9247 21.2672 41.272 20.9678 36.7694 20.2192C22.5111 18.1233 11.7048 13.7817 4.20049 7.04481C5.55127 16.1771 9.60362 26.9561 16.5076 33.3936C16.9579 33.8428 17.108 34.4416 17.108 35.0404C16.3575 39.2323 15.7572 43.4241 17.4082 46.4183C19.2092 49.5622 22.2109 52.1073 25.6629 53.305C26.1132 53.4547 26.4134 53.7541 26.5635 54.0535C28.5146 57.0477 33.7677 64.084 40.8217 65.2817C41.5722 65.4314 42.1725 66.0302 42.3226 66.7788C42.923 69.3238 44.724 72.7672 46.8252 74.1145C49.0765 75.4619 51.7781 75.7613 54.1795 75.0128C54.9299 74.7134 55.8305 75.0128 56.2807 75.7613C60.3331 81.7497 67.8374 88.1872 75.4919 88.9357C76.0922 88.9357 76.6926 89.3849 76.8427 89.834C77.5931 91.0317 79.3941 93.1276 80.2947 93.5767C81.0451 94.0259 81.4954 94.9241 81.1952 95.8224C80.895 96.7206 79.9945 97.1698 79.094 97.02C72.19 95.8224 67.3872 97.7686 62.8846 103.607C62.4343 104.206 61.6839 104.506 60.9334 104.356C55.3802 103.008 49.827 106.003 47.5757 111.392C47.4256 111.841 46.9753 112.29 46.375 112.44C45.9247 112.59 45.3244 112.59 44.8741 112.29C41.5722 110.194 36.169 109.895 32.717 112.29Z" fill="#136CD0"/>
<path d="M152.037 18.2727C151.287 18.4224 150.687 18.123 150.236 17.5241C149.636 16.7756 149.786 15.5779 150.537 14.9791L160.442 7.34391L146.484 8.39187C145.434 8.54158 144.533 7.64333 144.533 6.74507C144.383 5.69711 145.284 4.79885 146.184 4.79885L166.446 3.30176C167.196 3.30176 168.097 3.75089 168.397 4.49943C168.697 5.24798 168.397 6.14623 167.797 6.59536L152.788 17.9733C152.488 18.123 152.188 18.2727 152.037 18.2727Z" fill="#136CD0"/>
<path d="M95.3044 60.1908C94.1037 60.3405 93.2031 59.5919 93.0531 58.6937C92.0024 50.7591 85.999 43.1239 77.2939 38.6326C69.0391 34.2911 59.5836 33.0934 50.5784 32.3449C48.6273 32.1951 46.6761 32.0454 44.725 31.8957C37.2206 31.2969 29.5662 30.8478 22.0618 28.9015C21.0112 28.6021 20.4109 27.7039 20.7111 26.6559C21.0112 25.6079 21.9118 25.0091 22.9624 25.3085C30.0165 27.105 37.6709 27.7039 44.8751 28.153C46.8262 28.3027 48.7774 28.4524 50.7285 28.6021C59.5836 29.3507 69.9396 30.6981 78.7948 35.339C88.7005 40.4292 95.3044 48.9626 96.5051 58.2445C96.8052 59.1428 96.2049 59.8913 95.3044 60.1908Z" fill="#136CD0"/>
<path d="M134.777 15.7285C135.528 16.9262 137.029 17.525 138.229 16.7765C139.43 16.028 140.031 14.5309 139.28 13.3332C138.53 12.1355 137.029 11.5367 135.828 12.2852C134.627 12.8841 134.177 14.3812 134.777 15.7285Z" fill="#136CD0"/>
</g>
<defs>
<clipPath id="clip0_338_1056">
<rect width="168.398" height="125.456" fill="white" transform="translate(0 0.15918)"/>
</clipPath>
</defs>
</svg>
