<svg width="49" height="48" viewBox="0 0 49 48" fill="none" xmlns="http://www.w3.org/2000/svg">
<rect x="0.0273438" y="0.445435" width="48" height="47" rx="14" fill="#474747"/>
<path d="M22.0273 33.9454V29.9454C22.0273 29.415 22.2381 28.9063 22.6131 28.5312C22.9882 28.1561 23.4969 27.9454 24.0273 27.9454C24.5578 27.9454 25.0665 28.1561 25.4416 28.5312C25.8166 28.9063 26.0273 29.415 26.0273 29.9454V33.9454H30.0273V23.9454C30.0273 23.7729 29.9826 23.6033 29.8976 23.4531C29.8127 23.3029 29.6903 23.1773 29.5423 23.0884L25.0273 20.3794V17.9454H27.0273V15.9454H25.0273V13.9454H23.0273V15.9454H21.0273V17.9454H23.0273V20.3794L18.5123 23.0884C18.3644 23.1773 18.242 23.3029 18.157 23.4531C18.0721 23.6033 18.0274 23.7729 18.0273 23.9454V33.9454H22.0273ZM15.0273 33.9454H17.0273V25.8274L14.5803 27.0514C14.4141 27.1342 14.2743 27.2618 14.1766 27.4197C14.0789 27.5777 14.0272 27.7597 14.0273 27.9454V32.9454C14.0273 33.2107 14.1327 33.465 14.3202 33.6525C14.5078 33.8401 14.7621 33.9454 15.0273 33.9454ZM33.4743 27.0504L31.0273 25.8274V33.9454H33.0273C33.2926 33.9454 33.5469 33.8401 33.7345 33.6525C33.922 33.465 34.0273 33.2107 34.0273 32.9454V27.9454C34.0273 27.5664 33.8133 27.2204 33.4743 27.0504Z" fill="white"/>
</svg>
