<svg width="49" height="48" viewBox="0 0 49 48" fill="none" xmlns="http://www.w3.org/2000/svg">
<rect x="0.0273438" y="0.0594482" width="48" height="47" rx="14" fill="#474747"/>
<g clip-path="url(#clip0_31_265)">
<path d="M25.5271 19.3971V18.08C24.2053 16.3784 23.3193 14.3628 22.9912 12.2112C22.8928 11.5784 22.1006 11.33 21.6881 11.8222C20.699 12.9893 19.9209 14.3581 19.3959 15.8768C20.999 17.6721 23.1459 18.905 25.5271 19.3971ZM30.7771 14.5597C28.7053 14.5597 27.0271 16.2425 27.0271 18.3143V21.0987C22.1334 20.8081 17.9803 17.794 16.1053 13.519C15.8474 12.9331 15.0178 12.9003 14.7459 13.4768C13.9678 15.1222 13.5271 16.9597 13.5271 18.9003C13.5271 22.219 15.1256 25.3175 17.5162 27.6143C18.1349 28.2097 18.7396 28.7018 19.3396 29.1518L12.5943 30.8393C12.0928 30.9659 11.8678 31.5471 12.149 31.9831C12.9646 33.244 14.9803 35.3815 19.3303 35.5596C19.7053 35.5737 20.0803 35.4378 20.3662 35.1893L23.4224 32.5596H27.0271C31.1709 32.5596 34.5271 29.2081 34.5271 25.0643V17.5596L36.0271 14.5597H30.7771ZM30.7771 19.0643C30.3646 19.0643 30.0271 18.7268 30.0271 18.3143C30.0271 17.9018 30.3646 17.5643 30.7771 17.5643C31.1896 17.5643 31.5271 17.9018 31.5271 18.3143C31.5271 18.7268 31.1896 19.0643 30.7771 19.0643Z" fill="white"/>
</g>
<defs>
<clipPath id="clip0_31_265">
<rect width="24" height="24" fill="white" transform="translate(12.0273 11.5594)"/>
</clipPath>
</defs>
</svg>
