<svg width="49" height="48" viewBox="0 0 49 48" fill="none" xmlns="http://www.w3.org/2000/svg">
<rect x="0.0273438" y="0.673462" width="48" height="47" rx="14" fill="#474747"/>
<g clip-path="url(#clip0_31_256)">
<path d="M24.0273 14.7985C17.8151 14.7985 12.7773 21.2751 12.7773 23.5105C12.7773 25.7458 17.8151 32.2225 24.0273 32.2225C25.758 32.2225 27.3967 31.7188 28.8618 30.9456L32.8698 33.5485V27.8057C34.3762 26.1557 35.2773 24.4551 35.2773 23.5105C35.2773 21.2751 30.2403 14.7985 24.0273 14.7985ZM24.0273 29.1925C20.9212 29.1925 18.4023 26.6485 18.4023 23.5108C18.4023 20.3725 20.9212 17.8292 24.0273 17.8292C27.1342 17.8292 29.6523 20.3725 29.6523 23.5108C29.6523 26.6485 27.1342 29.1925 24.0273 29.1925Z" fill="white"/>
<path d="M24.0273 20.1017C23.6617 20.1017 23.3107 20.1621 22.9811 20.2704C23.191 20.4474 23.3598 20.6681 23.4757 20.917C23.5916 21.1658 23.6519 21.437 23.6523 21.7116C23.6523 22.7571 22.8131 23.6053 21.7773 23.6053C21.376 23.6041 20.9859 23.4722 20.6662 23.2296C20.658 23.323 20.6534 23.4167 20.6523 23.5104C20.6523 25.3929 22.1632 26.9196 24.0273 26.9196C25.8915 26.9196 27.4023 25.3929 27.4023 23.5104C27.4023 21.6276 25.8915 20.1017 24.0273 20.1017Z" fill="white"/>
</g>
<defs>
<clipPath id="clip0_31_256">
<rect width="24" height="24" fill="white" transform="translate(12.0273 12.1735)"/>
</clipPath>
</defs>
</svg>
