<svg width="35" height="34" viewBox="0 0 35 34" fill="none" xmlns="http://www.w3.org/2000/svg">
<rect x="0.504883" y="0.165039" width="33.8073" height="33.8073" rx="9.65924" fill="#2867AE"/>
<mask id="mask0_48_596" style="mask-type:alpha" maskUnits="userSpaceOnUse" x="7" y="7" width="21" height="20">
<rect x="7.74902" y="7.40942" width="19.3185" height="19.3185" fill="#D9D9D9"/>
</mask>
<g mask="url(#mask0_48_596)">
<path d="M14.7922 25.4579C14.1751 25.4579 13.6218 25.2969 13.1324 24.9749C12.6425 24.6529 12.2634 24.2102 11.9951 23.6468C11.7804 23.9285 11.5089 24.1464 11.1805 24.3004C10.8515 24.4549 10.5126 24.5322 10.1638 24.5322C9.47964 24.5322 8.90625 24.2974 8.44368 23.8279C7.98058 23.3583 7.74902 22.7882 7.74902 22.1174C7.74902 21.5405 7.93684 21.0205 8.31248 20.5574C8.68812 20.0949 9.16437 19.83 9.74124 19.7629C9.55342 19.4946 9.40934 19.2094 9.30899 18.9073C9.20811 18.6057 9.15766 18.2872 9.15766 17.9518C9.15766 17.4152 9.29531 16.9121 9.5706 16.4426C9.84535 15.973 10.2309 15.5907 10.7273 15.2955C10.7944 15.537 10.8848 15.7951 10.9986 16.0699C11.1129 16.3452 11.2438 16.5834 11.3914 16.7847C11.2035 16.9323 11.056 17.1099 10.9486 17.3176C10.8413 17.5258 10.7877 17.7439 10.7877 17.972C10.7877 18.7232 11.0962 19.1861 11.7133 19.3605C12.3305 19.5349 12.914 19.6757 13.4641 19.7831L13.8464 20.427C13.6988 20.8563 13.5714 21.222 13.4641 21.5242C13.3568 21.8257 13.3031 22.0973 13.3031 22.3387C13.3031 22.7412 13.4474 23.0935 13.7361 23.3956C14.0243 23.6972 14.3763 23.848 14.7922 23.848C15.302 23.848 15.7246 23.6199 16.06 23.1638C16.3954 22.7077 16.6704 22.1711 16.8851 21.5539C17.0997 20.9368 17.2642 20.313 17.3785 19.6825C17.4922 19.0519 17.5827 18.569 17.6497 18.2336L19.2194 18.6562C19.0986 19.2599 18.9511 19.9508 18.7767 20.7289C18.6023 21.507 18.3576 22.2481 18.0426 22.9521C17.727 23.6567 17.3111 24.2505 16.7949 24.7334C16.2781 25.2164 15.6106 25.4579 14.7922 25.4579ZM10.1638 22.9223C10.3919 22.9223 10.5832 22.8451 10.7378 22.6905C10.8918 22.5365 10.9688 22.3455 10.9688 22.1174C10.9688 21.8893 10.8918 21.698 10.7378 21.5435C10.5832 21.3895 10.3919 21.3125 10.1638 21.3125C9.93577 21.3125 9.74473 21.3895 9.59072 21.5435C9.43617 21.698 9.3589 21.8893 9.3589 22.1174C9.3589 22.3455 9.43617 22.5365 9.59072 22.6905C9.74473 22.8451 9.93577 22.9223 10.1638 22.9223ZM15.8789 19.7428C15.2618 19.1928 14.7018 18.6795 14.199 18.203C13.6956 17.727 13.2628 17.2644 12.9006 16.8153C12.5384 16.3656 12.2602 15.9159 12.0659 15.4662C11.8711 15.017 11.7737 14.551 11.7737 14.068C11.7737 13.196 12.0723 12.4614 12.6696 11.8641C13.2663 11.2674 14.0007 10.969 14.8727 10.969C14.9264 10.969 14.9733 10.9722 15.0136 10.9787C15.0538 10.9856 15.1008 10.9891 15.1544 10.9891C15.1008 10.855 15.0605 10.7208 15.0337 10.5867C15.0069 10.4525 14.9935 10.3116 14.9935 10.1641C14.9935 9.4933 15.2282 8.92313 15.6978 8.45359C16.1673 7.98404 16.7375 7.74927 17.4083 7.74927C18.079 7.74927 18.6492 7.98404 19.1188 8.45359C19.5883 8.92313 19.8231 9.4933 19.8231 10.1641C19.8231 10.3116 19.8097 10.449 19.7828 10.5762C19.756 10.7039 19.7158 10.8349 19.6621 10.969H19.9438C20.7488 10.969 21.433 11.2271 21.9964 11.7434C22.5599 12.2601 22.8953 12.9009 23.0026 13.6656C22.7611 13.6253 22.4896 13.6052 22.188 13.6052C21.8859 13.6052 21.6074 13.6186 21.3525 13.6454C21.2585 13.3369 21.0876 13.082 20.8397 12.8807C20.5913 12.6795 20.2926 12.5789 19.9438 12.5789C19.4743 12.5789 19.1088 12.7165 18.8475 12.9918C18.5856 13.2666 18.2266 13.6656 17.7705 14.1888H17.0259C16.5564 13.6387 16.1909 13.2328 15.9296 12.9709C15.6677 12.7096 15.3154 12.5789 14.8727 12.5789C14.4434 12.5789 14.0879 12.7198 13.8062 13.0015C13.5244 13.2832 13.3836 13.6387 13.3836 14.068C13.3836 14.3766 13.4708 14.6951 13.6452 15.0235C13.8196 15.3524 14.0646 15.7012 14.3801 16.0699C14.6951 16.4391 15.0774 16.8316 15.5271 17.2475C15.9763 17.6634 16.4759 18.1128 17.0259 18.5958L15.8789 19.7428ZM17.4083 10.969C17.6363 10.969 17.8276 10.8917 17.9822 10.7372C18.1362 10.5832 18.2132 10.3921 18.2132 10.1641C18.2132 9.93601 18.1362 9.74471 17.9822 9.59016C17.8276 9.43615 17.6363 9.35914 17.4083 9.35914C17.1802 9.35914 16.9892 9.43615 16.8352 9.59016C16.6806 9.74471 16.6033 9.93601 16.6033 10.1641C16.6033 10.3921 16.6806 10.5832 16.8352 10.7372C16.9892 10.8917 17.1802 10.969 17.4083 10.969ZM20.0042 25.4579C19.709 25.4579 19.4174 25.4176 19.1292 25.3371C18.8405 25.2566 18.562 25.1292 18.2937 24.9548C18.4413 24.767 18.5888 24.5456 18.7364 24.2907C18.884 24.0358 19.0181 23.801 19.1389 23.5864C19.2865 23.6803 19.434 23.7474 19.5816 23.7876C19.7292 23.8279 19.8767 23.848 20.0243 23.848C20.4536 23.848 20.8123 23.6972 21.1005 23.3956C21.3892 23.0935 21.5336 22.7345 21.5336 22.3186C21.5336 22.0637 21.4799 21.7887 21.3726 21.4936C21.2653 21.1984 21.1378 20.8362 20.9902 20.4069L21.3726 19.7629C21.936 19.6556 22.5231 19.5148 23.1338 19.3404C23.7439 19.166 24.049 18.7031 24.049 17.9518C24.049 17.4152 23.8512 17.0262 23.4558 16.7847C23.0597 16.5432 22.6269 16.4225 22.1574 16.4225C21.5939 16.4225 20.9366 16.5298 20.1853 16.7444C19.434 16.9591 18.5553 17.2341 17.5491 17.5695L17.1265 15.9999C18.173 15.6645 19.1053 15.3828 19.9237 15.1547C20.742 14.9266 21.4933 14.8126 22.1775 14.8126C23.1032 14.8126 23.9148 15.0876 24.6124 15.6376C25.3101 16.1877 25.6589 16.9591 25.6589 17.9518C25.6589 18.2872 25.6084 18.6057 25.5075 18.9073C25.4072 19.2094 25.2631 19.4946 25.0753 19.7629C25.6522 19.83 26.1284 20.0949 26.5041 20.5574C26.8797 21.0205 27.0675 21.5405 27.0675 22.1174C27.0675 22.7882 26.8362 23.3583 26.3737 23.8279C25.9105 24.2974 25.3369 24.5322 24.6527 24.5322C24.3039 24.5322 23.9653 24.4549 23.6369 24.3004C23.3079 24.1464 23.0361 23.9285 22.8215 23.6468C22.5532 24.2102 22.174 24.6529 21.6841 24.9749C21.1947 25.2969 20.6347 25.4579 20.0042 25.4579ZM24.6728 22.9223C24.9009 22.9223 25.0887 22.8451 25.2363 22.6905C25.3838 22.5365 25.4576 22.3455 25.4576 22.1174C25.4576 21.8893 25.3804 21.6948 25.2258 21.5338C25.0718 21.3728 24.8808 21.2923 24.6527 21.2923C24.4246 21.2923 24.2336 21.3696 24.0796 21.5242C23.925 21.6782 23.8478 21.8692 23.8478 22.0973C23.8478 22.3253 23.9283 22.5199 24.0892 22.6808C24.2502 22.8418 24.4448 22.9223 24.6728 22.9223Z" fill="white"/>
</g>
</svg>
