<svg width="35" height="34" viewBox="0 0 35 34" fill="none" xmlns="http://www.w3.org/2000/svg">
<rect x="0.927734" y="0.165039" width="33.8073" height="33.8073" rx="9.65924" fill="#FFA739"/>
<mask id="mask0_48_590" style="mask-type:alpha" maskUnits="userSpaceOnUse" x="8" y="7" width="20" height="20">
<rect x="8.17188" y="7.40942" width="19.3185" height="19.3185" fill="#D9D9D9"/>
</mask>
<g mask="url(#mask0_48_590)">
<path d="M17.8309 23.5063C17.1869 22.9965 16.4893 22.6008 15.738 22.319C14.9868 22.0373 14.2087 21.8965 13.4037 21.8965C12.8403 21.8965 12.287 21.9702 11.7439 22.1178C11.2003 22.2654 10.6803 22.4733 10.184 22.7416C9.90224 22.8892 9.63071 22.8825 9.36937 22.7215C9.1075 22.5605 8.97656 22.3258 8.97656 22.0172V12.3177C8.97656 12.1701 9.01359 12.0293 9.08764 11.8951C9.16116 11.761 9.27171 11.6603 9.41928 11.5933C10.0364 11.2713 10.6803 11.0298 11.3511 10.8688C12.0219 10.7078 12.7061 10.6273 13.4037 10.6273C14.1818 10.6273 14.9433 10.728 15.6881 10.9292C16.4324 11.1304 17.1467 11.4323 17.8309 11.8347V21.5745C18.5151 21.1452 19.2328 20.8232 19.9841 20.6086C20.7353 20.3939 21.4933 20.2866 22.258 20.2866C22.741 20.2866 23.214 20.3268 23.6771 20.4073C24.1397 20.4878 24.6058 20.6086 25.0753 20.7695V11.1103C25.2765 11.1774 25.4745 11.2477 25.6693 11.3212C25.8636 11.3952 26.0546 11.4859 26.2425 11.5933C26.39 11.6603 26.5008 11.761 26.5749 11.8951C26.6484 12.0293 26.6852 12.1701 26.6852 12.3177V22.0172C26.6852 22.3258 26.5545 22.5605 26.2932 22.7215C26.0313 22.8825 25.7595 22.8892 25.4778 22.7416C24.9814 22.4733 24.4614 22.2654 23.9178 22.1178C23.3747 21.9702 22.8215 21.8965 22.258 21.8965C21.4531 21.8965 20.675 22.0373 19.9237 22.319C19.1724 22.6008 18.4748 22.9965 17.8309 23.5063ZM19.4407 19.4816V11.8347L23.4654 7.81006V15.8594L19.4407 19.4816ZM16.221 20.7897V12.8208C15.7783 12.633 15.3189 12.4889 14.8429 12.3885C14.3664 12.2877 13.8867 12.2372 13.4037 12.2372C12.9073 12.2372 12.4244 12.2842 11.9548 12.3781C11.4853 12.472 11.0292 12.6128 10.5864 12.8007V20.7897C11.056 20.6153 11.5223 20.4878 11.9854 20.4073C12.448 20.3268 12.9208 20.2866 13.4037 20.2866C13.8867 20.2866 14.3594 20.3268 14.822 20.4073C15.2851 20.4878 15.7514 20.6153 16.221 20.7897Z" fill="white"/>
</g>
</svg>
