<svg width="35" height="34" viewBox="0 0 35 34" fill="none" xmlns="http://www.w3.org/2000/svg">
<rect x="0.320312" y="0.165039" width="33.8073" height="33.8073" rx="9.65924" fill="#FF2A31"/>
<mask id="mask0_48_583" style="mask-type:alpha" maskUnits="userSpaceOnUse" x="7" y="6" width="20" height="20">
<rect x="7.56445" y="6.2019" width="19.3185" height="19.3185" fill="#D9D9D9"/>
</mask>
<g mask="url(#mask0_48_583)">
<path d="M20.4432 16.6666C19.8261 16.1031 19.2259 15.5498 18.6425 15.0068C18.0587 14.4632 17.5422 13.9298 17.093 13.4066C16.6434 12.8834 16.2844 12.3768 16.016 11.8868C15.7477 11.3974 15.6136 10.9247 15.6136 10.4685C15.6136 9.71727 15.8685 9.08674 16.3783 8.57695C16.8881 8.06715 17.5186 7.81226 18.2699 7.81226C18.6992 7.81226 19.1016 7.90268 19.4773 8.08352C19.8529 8.2649 20.1749 8.50987 20.4432 8.81843C20.7115 8.50987 21.0335 8.2649 21.4091 8.08352C21.7848 7.90268 22.1872 7.81226 22.6165 7.81226C23.3678 7.81226 23.9983 8.06715 24.5081 8.57695C25.0179 9.08674 25.2728 9.71727 25.2728 10.4685C25.2728 10.9247 25.1387 11.3974 24.8703 11.8868C24.602 12.3768 24.2433 12.8834 23.7941 13.4066C23.3445 13.9298 22.8312 14.4632 22.2543 15.0068C21.6774 15.5498 21.0737 16.1031 20.4432 16.6666ZM18.8333 24.3135L13.1988 22.7438V15.0567H14.7684L19.759 16.908C20.2017 17.069 20.5607 17.3508 20.836 17.7532C21.1108 18.1557 21.2481 18.5984 21.2481 19.0814H19.6383C19.0748 19.0814 18.6321 19.0612 18.3101 19.021C17.9881 18.9808 17.7064 18.9204 17.4649 18.8399L15.8551 18.3167L15.6136 19.0814L16.8813 19.5442C17.257 19.6918 17.5991 19.7857 17.9076 19.8259C18.2162 19.8662 18.5784 19.8863 18.9943 19.8863H22.858C23.7434 19.8863 24.3673 20.0307 24.7295 20.3194C25.0917 20.6075 25.2728 20.9998 25.2728 21.4962V22.3011L18.8333 24.3135ZM8.36914 23.911V15.0567H11.5889V23.911H8.36914Z" fill="white"/>
</g>
</svg>
