<svg width="57" height="56" viewBox="0 0 57 56" fill="none" xmlns="http://www.w3.org/2000/svg">
<path d="M40.5273 29.9227C38.4829 28.056 36.4945 26.2231 34.562 24.424C32.6278 22.6231 30.9167 20.856 29.4287 19.1227C27.9389 17.3894 26.7496 15.7111 25.8607 14.088C24.9718 12.4667 24.5273 10.9005 24.5273 9.38936C24.5273 6.90047 25.3718 4.81158 27.0607 3.12269C28.7496 1.4338 30.8385 0.589355 33.3273 0.589355C34.7496 0.589355 36.0829 0.888911 37.3273 1.48802C38.5718 2.08891 39.6385 2.90047 40.5273 3.92269C41.4162 2.90047 42.4829 2.08891 43.7273 1.48802C44.9718 0.888911 46.3051 0.589355 47.7273 0.589355C50.2162 0.589355 52.3051 1.4338 53.994 3.12269C55.6829 4.81158 56.5273 6.90047 56.5273 9.38936C56.5273 10.9005 56.0829 12.4667 55.194 14.088C54.3051 15.7111 53.1167 17.3894 51.6287 19.1227C50.1389 20.856 48.4385 22.6231 46.5273 24.424C44.6162 26.2231 42.6162 28.056 40.5273 29.9227ZM35.194 55.256L16.5273 50.056V24.5894H21.7273L38.2607 30.7227C39.7273 31.256 40.9167 32.1894 41.8287 33.5227C42.7389 34.856 43.194 36.3227 43.194 37.9227H37.8607C35.994 37.9227 34.5273 37.856 33.4607 37.7227C32.394 37.5894 31.4607 37.3894 30.6607 37.1227L25.3273 35.3894L24.5273 37.9227L28.7273 39.456C29.9718 39.9449 31.1051 40.256 32.1273 40.3894C33.1496 40.5227 34.3496 40.5894 35.7273 40.5894H48.5273C51.4607 40.5894 53.5273 41.0676 54.7273 42.024C55.9273 42.9787 56.5273 44.2782 56.5273 45.9227V48.5894L35.194 55.256ZM0.527344 53.9227V24.5894H11.194V53.9227H0.527344Z" fill="#474747"/>
</svg>
