<svg width="55" height="54" viewBox="0 0 55 54" fill="none" xmlns="http://www.w3.org/2000/svg">
<path d="M24.8603 32.3333H19.527C19.527 25.9682 22.0556 19.8637 26.5564 15.3628C31.0573 10.8619 37.1618 8.33337 43.527 8.33337V13.6667C33.207 13.6667 24.8603 22.0134 24.8603 32.3333ZM43.527 24.3334V19C36.167 19 30.1937 24.9734 30.1937 32.3333H35.527C35.527 27.9067 39.1003 24.3334 43.527 24.3334ZM14.1937 5.6667C14.1937 2.70671 11.8203 0.333374 8.86034 0.333374C5.90035 0.333374 3.52702 2.70671 3.52702 5.6667C3.52702 8.6267 5.90035 11 8.86034 11C11.8203 11 14.1937 8.6267 14.1937 5.6667ZM26.0603 7.00003H20.727C20.4175 8.86283 19.457 10.5553 18.0164 11.7762C16.5758 12.997 14.7487 13.667 12.8603 13.6667H4.86035C2.64702 13.6667 0.860352 15.4534 0.860352 17.6667V24.3334H16.8603V18.3067C19.3311 17.5275 21.5193 16.0413 23.1544 14.0318C24.7895 12.0223 25.7998 9.57759 26.0603 7.00003ZM46.1936 40.3333C49.1536 40.3333 51.527 37.96 51.527 35C51.527 32.04 49.1536 29.6667 46.1936 29.6667C43.2336 29.6667 40.8603 32.04 40.8603 35C40.8603 37.96 43.2336 40.3333 46.1936 40.3333ZM50.1936 43H42.1936C40.3053 43.0003 38.4782 42.3303 37.0376 41.1095C35.597 39.8886 34.6364 38.1961 34.327 36.3333H28.9937C29.2542 38.9109 30.2645 41.3556 31.8996 43.3651C33.5347 45.3746 35.7229 46.8608 38.1936 47.64V53.6667H54.1936V47C54.1936 44.7867 52.407 43 50.1936 43Z" fill="#474747"/>
</svg>
