<svg width="174" height="120" viewBox="0 0 174 120" fill="none" xmlns="http://www.w3.org/2000/svg">
<g clip-path="url(#clip0_338_1090)">
<path d="M94.8104 55.7565C94.1948 55.7565 93.7023 55.3871 93.4561 54.7715C93.0867 54.0327 93.4561 53.0476 94.3179 52.8013C118.695 42.5813 144.303 35.809 170.526 32.6075C171.388 32.4844 172.127 33.1 172.25 33.962C172.373 34.8239 171.757 35.5627 170.896 35.6858C145.041 38.8873 119.68 45.5365 95.549 55.6334C95.1797 55.7565 94.9335 55.7565 94.8104 55.7565Z" fill="#474747"/>
<path d="M81.8843 118.432C59.9698 109.32 41.3793 92.4506 30.0527 71.6411C25.7437 63.7605 22.5427 55.3875 21.6809 46.5219C20.8191 37.6563 22.5427 28.4213 27.5904 21.0333C32.6382 13.6453 41.1331 8.47371 49.9974 8.71997C58.2461 8.84311 66.0024 13.399 71.6657 19.4326C77.329 25.4661 81.3918 32.8541 85.3315 40.119C91.4873 23.7422 105.03 10.9364 121.158 4.53344C128.791 1.45511 138.271 0.223778 144.673 5.39537C148.859 8.84311 150.829 14.261 151.691 19.6788C153.661 31.7459 151.075 44.4286 145.904 55.5106C140.733 66.7157 133.1 76.5664 124.728 85.432C111.555 99.5923 98.3817 108.581 81.8843 118.432Z" fill="#FF2A31"/>
<g opacity="0.4">
<path d="M151.691 19.679C150.829 14.3843 148.859 8.84328 144.673 5.39555C140.733 2.31722 135.809 1.45529 130.638 2.07095C138.64 10.9365 142.088 23.7424 140.979 35.8095C139.748 50.2161 132.854 63.6376 124.482 75.5815C120.419 81.3688 115.125 87.4023 108.108 87.8948C101.213 88.3874 95.3037 83.462 89.8866 79.1524C84.4695 74.8427 77.5751 70.6562 71.05 72.8726C64.4017 75.089 61.447 82.6001 56.5224 87.7717C53.6907 90.7269 50.1204 92.697 46.1807 93.8052C56.2761 104.395 68.4645 112.891 81.8841 118.555C98.3816 108.704 111.678 99.7156 124.728 85.5553C133.1 76.5666 140.733 66.7159 145.904 55.6339C151.075 44.3057 153.66 31.7461 151.691 19.679Z" fill="#FF2A31"/>
</g>
<g opacity="0.4">
<path d="M151.691 19.6785C150.829 14.6301 148.982 9.33534 145.166 6.01074C146.274 8.35027 146.889 10.8129 147.012 13.2756C147.382 19.9248 145.042 26.4509 141.965 32.4844C135.563 45.4134 126.452 56.9879 117.465 68.193C114.264 72.2564 110.94 76.3198 106.754 79.275C102.568 82.3534 97.3968 84.2004 92.3491 83.4616C87.1783 82.5996 82.623 79.1519 77.3291 78.7825C72.4044 78.5362 67.7261 81.2452 63.7864 84.2004C59.8467 87.2787 56.1532 90.7264 51.4748 92.5734C49.7512 93.3122 47.7814 93.6816 45.8115 93.5585C55.907 104.148 68.0954 112.767 81.6381 118.431C98.1355 108.581 111.432 99.592 124.482 85.4317C132.854 76.443 140.487 66.5923 145.658 55.5103C151.075 44.3052 153.661 31.7456 151.691 19.6785Z" fill="#FF2A31"/>
</g>
<g opacity="0.44">
<path d="M32.268 50.8315C30.7906 44.9211 30.4212 38.7644 31.4061 32.7309C31.8986 29.4063 32.8835 25.9586 34.8534 23.2496C36.8232 20.4176 39.9011 18.3243 43.3483 18.2012C39.0393 21.8952 36.8232 27.4362 35.469 32.9772C34.2378 38.5182 32.3911 45.1674 32.268 50.8315Z" fill="#FF2A31"/>
</g>
<g opacity="0.44">
<path d="M127.437 7.36523C111.801 12.9062 98.7508 25.0964 92.1025 40.2418C102.814 28.5442 114.633 16.7234 127.437 7.36523Z" fill="#FF2A31"/>
</g>
<path d="M81.8836 119.909C81.6374 119.909 81.5143 119.909 81.268 119.786C58.9841 110.428 40.2706 93.5584 28.6978 72.2564C23.7732 63.1445 20.9415 54.6483 20.0797 46.5215C19.0948 36.6708 21.3109 27.1896 26.2355 20.0479C31.7757 11.9211 40.8862 6.99573 49.9967 7.11887C57.9992 7.242 66.0017 11.1823 72.7731 18.324C77.9439 23.7419 81.6374 30.1448 85.2077 36.4246C91.7328 21.6486 104.537 9.58153 120.542 3.1786C130.637 -0.884795 139.748 -0.515395 145.534 4.16367C149.474 7.36513 152.059 12.4136 153.167 19.3091C155.137 30.8836 153.044 43.6894 147.258 56.1259C142.579 66.0997 135.808 75.8272 125.836 86.5398C112.786 100.577 99.6122 109.689 82.6223 119.786C82.3761 119.909 82.1298 119.909 81.8836 119.909ZM49.6274 10.0741C41.748 10.0741 33.7455 14.5069 28.8209 21.7717C24.2656 28.4209 22.2958 37.0402 23.2807 46.2752C24.0194 54.0326 26.7279 62.0363 31.5294 70.9019C42.6098 91.342 60.4615 107.596 81.8836 116.707C98.2579 106.857 111.062 97.9912 123.743 84.4466C133.469 73.9802 140.117 64.6221 144.672 54.8946C150.089 43.0738 152.059 30.8836 150.336 19.9247C149.351 13.7681 147.135 9.21213 143.811 6.62633C136.793 0.962204 126.082 4.2868 121.896 6.01067C105.522 12.6599 92.7178 25.2195 87.0545 40.488C86.8082 41.1036 86.3158 41.473 85.7002 41.473C85.0846 41.473 84.5921 41.2268 84.2228 40.7342C80.16 33.5925 76.2203 26.2045 70.557 20.2941C66.9866 16.6001 59.5997 10.1972 49.8736 10.0741C49.8736 10.0741 49.7505 10.0741 49.6274 10.0741Z" fill="#474747"/>
<path d="M6.66012 95.7746C6.16766 95.7746 5.6752 95.5283 5.42897 95.1589C4.93651 94.4201 5.18274 93.5582 5.79831 93.0657C27.4666 77.9203 51.1048 65.9764 76.0972 57.4802C76.8359 57.2339 77.8208 57.6033 78.067 58.4652C78.3132 59.204 77.9439 60.1891 77.0821 60.4354C52.3359 68.8084 28.944 80.6292 7.52193 95.5284C7.2757 95.6515 6.90635 95.7746 6.66012 95.7746Z" fill="#474747"/>
<path d="M13.1858 103.779C12.9396 103.779 12.6934 103.656 12.4471 103.533C11.9547 103.287 11.7084 102.671 11.7084 102.055C11.9547 99.8388 12.2009 97.6224 12.324 95.406C12.4471 93.6822 12.6934 92.0814 12.8165 90.3576C11.216 90.2344 9.61547 89.9882 8.01497 89.7419C5.92201 89.3725 3.70594 89.1262 1.98232 89.0031C1.36675 89.0031 0.751169 88.5106 0.628054 87.8949C0.504938 87.2792 0.751169 86.5404 1.24363 86.171C4.1984 84.324 7.15317 82.3539 10.1079 80.63C12.9396 78.783 16.0175 76.936 18.8491 75.089C19.2185 74.8428 19.5878 74.8428 20.0803 74.8428C24.2662 75.8278 27.9597 76.936 30.7913 77.9211C31.4069 78.1674 31.8993 78.783 31.7762 79.5218L30.422 91.4658C30.422 91.9583 30.1757 92.3277 29.8064 92.574C27.221 94.2978 24.6355 96.1448 22.0501 97.8687C19.4647 99.7157 16.8793 101.563 14.1707 103.287C13.8014 103.779 13.5552 103.779 13.1858 103.779ZM6.53759 86.5404C7.15317 86.6636 7.89186 86.7867 8.50743 86.7867C10.6004 87.1561 12.8165 87.4024 14.5401 87.5255C14.9094 87.5255 15.4019 87.7718 15.6481 88.018C15.8944 88.3874 16.0175 88.7568 16.0175 89.1262C15.7712 91.3426 15.525 93.559 15.4019 95.7754C15.2788 96.8836 15.1557 97.9918 15.0325 99.1C16.7562 97.8687 18.4798 96.7605 20.0803 95.5292C22.4195 93.9284 24.8818 92.2046 27.3441 90.4807L28.4521 80.3838C26.1129 79.5218 23.1582 78.6599 19.834 77.9211C17.1255 79.645 14.2939 81.492 11.5853 83.0927C9.98482 84.4472 8.2612 85.4322 6.53759 86.5404Z" fill="#474747"/>
<path d="M162.155 43.5652L161.047 42.457L160.062 41.3488C162.771 39.0093 165.725 36.5467 168.68 34.3303C165.233 32.3601 161.539 30.8825 157.723 29.6512C156.861 29.4049 156.492 28.543 156.738 27.6811C156.984 26.8191 157.846 26.4497 158.708 26.696C163.509 28.1736 168.065 30.2669 172.251 32.8527C172.743 33.0989 172.989 33.5915 172.989 34.084C172.989 34.5765 172.743 35.0691 172.374 35.4385C168.926 37.6549 165.356 40.7332 162.155 43.5652Z" fill="#474747"/>
</g>
<defs>
<clipPath id="clip0_338_1090">
<rect width="172.608" height="119.562" fill="white" transform="translate(0.503906 0.34668)"/>
</clipPath>
</defs>
</svg>
