<svg width="149" height="209" viewBox="0 0 149 209" fill="none" xmlns="http://www.w3.org/2000/svg">
<g clip-path="url(#clip0_335_1018)">
<path d="M16.8462 207.146C44.5407 182.693 56.2016 142.019 46.7271 106.429C44.2978 97.4712 40.8967 88.2711 34.5804 81.2499C28.5071 74.4709 19.0326 69.6287 10.044 74.2288C1.78426 78.3446 -0.888021 88.7553 0.569585 97.2291C2.02719 105.219 7.61469 111.756 14.4169 116.114C30.2076 125.798 49.6423 121.44 61.7891 108.124C76.6081 92.1448 79.0374 69.8708 76.6081 49.0495C75.8793 42.9968 74.9075 36.944 73.6929 30.8913C72.7211 25.5649 71.7494 20.2386 69.8059 15.1543C66.4048 6.68048 58.388 -0.824886 48.4277 0.385657C38.4674 1.5962 34.8233 11.5227 36.281 20.2386C37.4956 28.7124 42.8402 36.4598 48.9135 42.0283C61.7891 53.6495 80.9809 58.2496 97.9863 54.1337C116.935 49.7758 131.997 36.4598 141.715 20.4807C144.144 16.3648 146.33 12.0069 148.274 7.64891C149.003 5.71204 147.545 3.77518 145.844 3.29096C143.658 2.56463 141.957 4.01728 141.229 5.71204C129.325 34.0387 99.201 57.2812 67.8624 44.9336C61.3032 42.2704 54.9869 38.1546 50.6141 32.5861C46.4842 27.5018 42.5972 19.9964 44.0549 13.2174C45.9983 4.74361 56.2016 6.92259 60.5744 12.249C66.1619 19.2701 66.8907 30.4071 68.3483 38.8809C71.5064 57.2812 72.9641 77.3762 63.2467 94.0817C55.9586 106.913 42.1114 116.84 26.8065 112.966C20.4902 111.271 14.4169 107.64 10.7728 102.313C7.12882 96.7449 6.15708 88.7553 10.287 82.9447C15.6315 75.6814 24.3772 80.5236 28.9929 85.6079C34.3375 91.4185 37.2527 99.1659 39.1962 106.671C47.4559 136.209 40.1679 170.104 19.7614 193.346C17.0891 196.251 14.4169 199.157 11.5016 201.578C8.10055 205.209 13.2022 210.294 16.8462 207.146Z" fill="#136CD0"/>
</g>
<defs>
<clipPath id="clip0_335_1018">
<rect width="148.19" height="207.971" fill="white" transform="translate(0.326172 0.142578)"/>
</clipPath>
</defs>
</svg>
