<svg width="179" height="197" viewBox="0 0 179 197" fill="none" xmlns="http://www.w3.org/2000/svg">
<g clip-path="url(#clip0_335_1031)">
<path d="M45.6339 103.568C45.7891 121.721 57.8962 139.099 74.3494 146.546C93.2861 155.235 117.655 150.736 131.625 135.53C145.75 120.17 147.768 94.8795 135.506 78.1226C111.136 44.1435 45.3235 58.573 45.6339 103.568Z" fill="#FF8E00"/>
<path d="M85.5263 57.1763C66.7448 60.9001 50.9125 76.5708 47.3425 95.3447C43.6172 114.429 52.6199 134.909 68.9179 145.46C85.5263 156.166 108.654 154.769 124.331 142.978C140.008 131.186 146.682 109.619 141.25 90.8452C135.817 71.9161 117.812 58.1073 98.2542 56.4005C95.7707 56.2454 93.4424 56.2454 90.9589 56.4005C88.0098 56.5557 88.0098 61.2104 90.9589 61.0552C108.809 59.6588 126.659 69.8991 134.42 86.0353C142.026 101.861 138.301 122.342 126.349 135.065C113.931 147.943 93.2872 151.977 76.9892 144.684C60.8465 137.392 50.4468 119.859 51.2229 102.327C51.999 82.6219 67.6761 65.3996 86.9232 61.5207C89.7172 61.0552 88.4754 56.5557 85.5263 57.1763Z" fill="#FF2A31"/>
<path d="M82.2658 3.0264C83.1971 15.2837 84.1285 27.6962 85.0598 39.9535C85.215 42.9015 89.8715 42.9015 89.7163 39.9535C88.785 27.6962 87.8537 15.4389 86.9224 3.0264C86.612 0.0784388 81.9554 0.0784388 82.2658 3.0264Z" fill="#FF2A31"/>
<path d="M63.0187 51.7462C54.3265 43.2126 45.479 34.679 36.7868 26.1454C34.6137 24.1284 31.3541 27.3867 33.5272 29.4037C42.2194 37.9373 51.0669 46.4709 59.7592 55.0044C61.9322 57.1766 65.1918 53.7632 63.0187 51.7462Z" fill="#FF2A31"/>
<path d="M8.07136 71.2954C16.7636 74.864 25.6111 78.4325 34.3033 82.0011C35.5451 82.4666 36.7868 81.5357 37.0973 80.4496C37.4077 79.0532 36.6316 78.1222 35.5451 77.6568C26.8528 74.0882 18.0054 70.5196 9.31311 66.951C8.07136 66.4855 6.82961 67.4165 6.51917 68.5026C6.20874 69.7438 6.98483 70.8299 8.07136 71.2954Z" fill="#FF2A31"/>
<path d="M33.0616 115.205C21.7306 117.532 11.0205 121.566 1.08654 127.307C-1.55218 128.859 0.776099 132.893 3.41482 131.341C13.0384 125.756 23.2828 121.877 34.1481 119.705C37.0973 119.084 35.8555 114.584 33.0616 115.205Z" fill="#FF2A31"/>
<path d="M44.5485 146.08C38.6501 152.907 32.7518 159.734 26.8535 166.716C26.0774 167.646 25.9222 169.043 26.8535 169.974C27.6296 170.75 29.337 170.905 30.1131 169.974C36.0114 163.147 41.9097 156.32 47.808 149.338C48.5841 148.407 48.7394 147.011 47.808 146.08C47.032 145.304 45.4798 145.149 44.5485 146.08Z" fill="#FF2A31"/>
<path d="M69.5381 165.009C67.6754 174.473 65.6576 183.938 63.795 193.402C63.1741 196.35 67.6754 197.592 68.2963 194.644C70.1589 185.179 72.1768 175.715 74.0394 166.25C74.5051 163.302 70.1589 162.061 69.5381 165.009Z" fill="#FF2A31"/>
<path d="M106.636 166.251C106.636 173.854 107.877 181.611 110.206 188.904C111.137 191.697 115.638 190.611 114.707 187.663C112.534 180.681 111.448 173.543 111.448 166.251C111.292 163.303 106.636 163.303 106.636 166.251Z" fill="#FF2A31"/>
<path d="M129.607 149.804C134.419 158.338 140.007 166.251 146.371 173.698C147.147 174.629 148.854 174.474 149.63 173.698C150.561 172.767 150.406 171.371 149.63 170.44C143.577 163.303 138.299 155.545 133.643 147.477C132.09 144.839 128.055 147.166 129.607 149.804Z" fill="#FF2A31"/>
<path d="M146.061 134.289C153.666 139.409 162.359 142.978 171.361 144.529C172.603 144.684 173.845 144.219 174.155 142.978C174.466 141.892 173.845 140.34 172.603 140.185C163.911 138.633 155.684 135.22 148.389 130.41C145.906 128.548 143.577 132.582 146.061 134.289Z" fill="#FF2A31"/>
<path d="M150.097 106.205C158.789 105.429 167.636 104.809 176.329 104.033C179.278 103.722 179.278 99.0678 176.329 99.3781C167.636 100.154 158.789 100.775 150.097 101.55C147.147 101.705 146.992 106.36 150.097 106.205Z" fill="#FF2A31"/>
<path d="M141.249 74.5539C152.425 69.1235 163.445 63.693 174.621 58.2626C177.26 57.0213 174.932 52.9873 172.293 54.2285C161.117 59.659 150.097 65.0894 138.921 70.5199C136.127 71.9163 138.61 75.7952 141.249 74.5539Z" fill="#FF2A31"/>
<path d="M120.761 50.3494C126.504 38.7127 132.092 27.2311 137.835 15.5944C139.077 12.9568 135.041 10.4743 133.799 13.2671C128.056 24.9038 122.468 36.3853 116.725 48.022C115.328 50.6597 119.364 52.987 120.761 50.3494Z" fill="#FF2A31"/>
<path d="M83.974 100.31C86.9238 100.31 86.9238 95.6543 83.974 95.6543C81.0243 95.6543 81.0243 100.31 83.974 100.31Z" fill="#FF2A31"/>
<path d="M94.9946 100.31C97.9443 100.31 97.9443 95.6543 94.9946 95.6543C92.0448 95.6543 92.0448 100.31 94.9946 100.31Z" fill="#FF2A31"/>
<path d="M82.4213 113.963C84.2839 117.221 88.0092 119.238 91.7344 118.928C95.6149 118.463 98.8745 115.67 99.8058 111.946C100.116 110.705 99.3401 109.308 98.2536 109.153C97.0118 108.843 95.7701 109.464 95.4597 110.705C95.4597 110.86 95.3044 111.015 95.3044 111.17C95.1492 111.481 95.3044 111.325 95.3044 111.17C95.1492 111.481 94.994 111.791 94.8388 111.946C94.6836 112.101 94.6836 112.256 94.5283 112.412C94.6836 112.101 94.6836 112.256 94.5283 112.412C94.3731 112.722 94.0627 112.877 93.9075 113.032C93.7522 113.187 93.597 113.187 93.597 113.343C93.7522 113.187 93.9075 113.187 93.597 113.343C93.2866 113.498 93.1314 113.653 92.8209 113.808C92.5105 113.963 92.6657 113.963 92.8209 113.808C92.6657 113.808 92.5105 113.963 92.3553 113.963C92.2001 113.963 91.2687 114.118 91.8896 114.118C91.5792 114.118 91.2687 114.118 90.9583 114.118C90.8031 114.118 90.6479 114.118 90.4927 114.118C90.1822 114.118 90.9583 114.273 90.4927 114.118C90.1822 114.118 89.8718 113.963 89.5613 113.808C89.5613 113.808 88.9405 113.653 89.2509 113.653C89.5613 113.808 89.0957 113.498 88.9405 113.498C88.63 113.343 88.3196 113.187 88.1644 113.032C87.6987 112.722 88.4748 113.342 88.0092 112.877C87.8539 112.722 87.6987 112.722 87.6987 112.567C87.5435 112.412 87.5435 112.412 87.3883 112.256C87.3883 112.256 87.0778 111.791 87.2331 112.101C87.3883 112.412 87.0778 111.946 87.0778 111.946C86.9226 111.791 86.9226 111.636 86.7674 111.481C86.1465 110.395 84.5943 109.929 83.5078 110.705C82.2661 111.481 81.8004 112.722 82.4213 113.963Z" fill="#FF2A31"/>
</g>
<defs>
<clipPath id="clip0_335_1031">
<rect width="178.502" height="195.341" fill="white" transform="translate(0 0.854492)"/>
</clipPath>
</defs>
</svg>
